<?xml version="1.0" standalone="no"?>
<!DOCTYPE svg PUBLIC "-//W3C//DTD SVG 20010904//EN"
 "http://www.w3.org/TR/2001/REC-SVG-20010904/DTD/svg10.dtd">
<svg version="1.0" xmlns="http://www.w3.org/2000/svg"
 width="1049.000000pt" height="577.000000pt" viewBox="0 0 1049.000000 577.000000"
 preserveAspectRatio="xMidYMid meet">
<metadata>
Created by potrace 1.16, written by Peter Selinger 2001-2019
</metadata>
<g transform="translate(0.000000,577.000000) scale(0.100000,-0.100000)"
fill="#C8956C" stroke="none">
<path d="M4460 3036 c0 -2 7 -7 16 -10 8 -3 12 -2 9 4 -6 10 -25 14 -25 6z
M4508 3033 c7 -3 16 -2 19 1 4 3 -2 6 -13 5 -11 0 -14 -3 -6 -6z M4335 3020
c18 -4 -14 -6 -77 -6 -60 1 -108 0 -108 -2 0 -1 10 -7 23 -12 16 -7 11 -8 -20
-3 -24 3 -43 2 -43 -3 0 -5 -13 -10 -30 -11 -65 -5 -80 -8 -80 -15 0 -5 -8 -8
-18 -8 -10 0 -28 -9 -39 -19 -12 -11 -24 -17 -27 -13 -4 3 4 12 16 20 18 10
19 12 3 7 -11 -4 -35 -9 -53 -10 -19 -2 -37 -7 -40 -11 -4 -4 7 -4 23 0 28 7
29 6 10 -7 -11 -9 -24 -13 -29 -10 -5 4 -6 1 -2 -5 9 -15 -23 -29 -62 -26 -30
1 -31 0 -15 -12 17 -13 17 -14 -1 -7 -15 5 -17 3 -11 -8 7 -10 2 -9 -17 3 -26
17 -26 17 -23 -8 1 -17 -4 -28 -19 -35 -20 -10 -20 -10 -2 5 32 25 4 18 -36
-9 -20 -14 -44 -25 -53 -25 -10 0 -15 -7 -13 -17 2 -10 -3 -18 -9 -19 -7 -1
-18 -2 -24 -3 -5 0 -8 -5 -5 -9 3 -5 0 -9 -7 -10 -46 -4 -72 -10 -69 -18 3
-12 25 -12 35 1 5 6 7 4 4 -5 -2 -8 -9 -16 -15 -16 -7 -1 -19 -2 -28 -3 -9 0
-12 -6 -8 -13 5 -8 2 -9 -10 -5 -9 4 -15 3 -11 -2 3 -6 -3 -14 -12 -20 -10 -6
-14 -11 -10 -11 5 0 -5 -12 -22 -26 -17 -14 -31 -32 -31 -39 0 -7 -7 -12 -16
-11 -9 0 -23 -10 -31 -24 l-15 -25 21 24 c11 13 21 19 21 13 0 -6 -17 -25 -37
-43 -21 -17 -31 -28 -23 -24 10 6 8 1 -4 -14 -15 -16 -22 -19 -28 -9 -6 9 -8
7 -4 -7 3 -12 -3 -30 -14 -45 -17 -21 -19 -21 -14 -5 4 15 3 16 -4 6 -5 -7 -7
-22 -4 -34 3 -14 1 -18 -6 -13 -11 6 -17 -13 -13 -37 1 -5 -3 -6 -9 -2 -5 3
-10 -1 -10 -9 0 -9 -5 -16 -11 -16 -6 0 -8 -8 -5 -17 4 -11 -1 -9 -14 7 l-21
25 16 -32 c9 -19 11 -33 5 -33 -5 0 -10 6 -10 13 0 8 -3 8 -9 -2 -6 -9 -6 -22
1 -34 6 -12 6 -17 0 -13 -5 3 -12 -13 -16 -36 -6 -38 -8 -40 -21 -22 -14 17
-14 17 -5 -9 7 -21 7 -26 -2 -21 -8 5 -9 0 -5 -15 3 -12 -1 -27 -9 -35 -8 -8
-14 -24 -14 -34 0 -11 -6 -23 -12 -25 -10 -4 -10 -6 0 -6 9 -1 9 -9 -3 -37 -8
-20 -12 -40 -9 -45 3 -5 0 -9 -5 -9 -6 0 -11 -11 -11 -25 0 -14 -5 -25 -11
-25 -6 0 -8 -7 -5 -15 14 -36 18 -50 9 -38 -13 18 -5 -161 9 -215 7 -30 14
-39 19 -30 7 10 9 10 9 1 0 -7 7 -13 16 -13 11 0 14 -5 10 -16 -6 -15 -4 -15
10 -3 10 8 19 13 21 11 3 -2 8 0 11 4 4 4 2 4 -5 0 -6 -3 -14 -2 -17 2 -3 5 6
14 19 20 14 7 25 19 25 28 0 10 5 14 16 10 9 -3 12 -2 9 5 -9 14 15 40 29 32
6 -4 4 2 -4 13 -8 10 -11 16 -6 12 5 -4 15 -1 23 7 9 9 27 13 49 10 21 -2 32
0 29 5 -4 6 -2 10 4 10 5 0 13 -4 16 -10 3 -5 13 -10 21 -10 10 0 12 5 8 13
-5 6 7 0 26 -14 19 -14 36 -32 38 -40 3 -8 -5 -3 -17 11 -19 21 -20 22 -12 4
6 -12 8 -24 4 -27 -3 -4 5 -4 17 -2 23 4 59 -29 52 -47 -1 -5 3 -7 10 -5 7 1
12 -2 13 -8 1 -12 24 -53 25 -43 0 4 12 -5 27 -19 15 -16 21 -29 15 -31 -7 -2
-12 -8 -12 -14 0 -7 5 -6 14 1 14 12 51 10 63 -4 5 -4 1 -5 -7 -1 -9 5 -8 2 2
-7 10 -8 15 -16 12 -19 -3 -3 9 -12 25 -19 17 -8 31 -21 32 -29 0 -9 3 -10 5
-4 3 7 14 9 25 7 14 -4 17 -8 9 -13 -7 -4 1 -7 17 -7 15 -1 46 -5 68 -11 22
-6 56 -9 75 -7 56 6 125 20 139 30 9 5 12 4 8 -3 -5 -6 1 -8 14 -5 11 3 23 12
26 19 3 8 13 14 22 14 14 0 14 -2 1 -11 -12 -9 -12 -10 3 -5 10 3 21 6 23 6 2
0 4 6 4 14 0 8 7 17 16 20 8 3 13 10 10 15 -3 5 2 8 12 7 11 0 17 6 17 18 0
11 6 21 13 24 6 2 12 12 12 22 0 10 7 21 16 24 8 3 12 11 8 17 -4 7 -1 10 7 7
8 -3 12 -14 11 -24 -2 -10 -1 -16 3 -12 4 3 8 30 10 59 2 28 9 57 14 62 6 6
11 21 11 34 0 13 5 23 10 23 6 0 10 5 10 11 0 5 -5 7 -12 3 -8 -5 -9 -2 -4 12
9 22 11 165 2 209 -5 27 -5 27 3 5 8 -23 9 -22 10 13 1 21 -4 47 -9 58 -6 10
-11 36 -12 56 0 21 -5 46 -10 56 -5 10 -11 35 -13 55 -2 20 -9 55 -15 77 -7
22 -13 55 -14 73 -1 21 -7 34 -19 38 -12 4 -16 12 -12 25 4 12 1 21 -10 25
-10 4 -13 13 -9 26 4 14 3 18 -6 13 -7 -4 -10 -2 -9 6 4 19 -11 59 -21 59 -12
0 -23 -37 -15 -50 4 -6 1 -17 -5 -25 -10 -12 -9 -16 3 -21 17 -6 20 -104 4
-104 -5 0 -5 -5 -2 -10 4 -6 10 -8 15 -5 9 6 7 -85 -2 -101 -3 -5 -3 -54 1
-109 7 -118 4 -188 -10 -180 -5 4 -9 2 -9 -4 0 -5 4 -12 9 -16 6 -3 6 -18 0
-37 -5 -18 -6 -41 -3 -52 5 -15 3 -18 -11 -12 -13 5 -16 2 -10 -11 11 -28 13
-63 4 -57 -5 3 -9 -5 -9 -18 0 -23 -30 -79 -56 -105 -25 -25 -15 3 11 31 14
15 25 30 25 34 0 4 -7 -2 -16 -13 -13 -17 -16 -18 -25 -5 -9 13 -10 12 -5 -3
3 -10 -3 -26 -14 -37 -11 -11 -15 -20 -10 -20 6 0 10 -4 10 -9 0 -5 -10 -7
-22 -4 -19 4 -20 3 -8 -7 12 -9 10 -10 -10 -4 -14 4 -27 10 -30 15 -3 4 -12 4
-20 -1 -13 -8 -12 -10 2 -10 27 0 29 -16 2 -18 -13 -1 -24 3 -24 9 0 7 -6 6
-17 -2 -13 -11 -17 -11 -20 -1 -7 18 -23 15 -24 -5 0 -11 -3 -13 -6 -5 -2 6
-16 12 -29 12 -14 0 -22 4 -19 10 10 16 -7 12 -28 -7 -13 -11 -17 -12 -12 -4
6 11 4 13 -9 8 -11 -4 -15 -3 -11 4 4 6 13 8 21 5 22 -8 17 2 -7 15 -17 9 -20
8 -14 -2 6 -9 3 -10 -11 -5 -10 5 -24 9 -31 9 -11 0 -10 25 2 50 4 6 0 4 -8
-5 -17 -22 -31 -23 -23 -3 6 18 -5 20 -21 4 -8 -8 -11 -6 -10 7 1 13 -4 18
-17 17 -13 -1 -15 2 -7 10 13 13 15 31 2 23 -4 -3 -17 2 -27 10 -10 9 -14 13
-9 11 6 -3 15 4 21 16 9 19 7 22 -16 23 -14 1 -19 -1 -12 -3 6 -3 12 -9 12
-14 0 -4 -7 -6 -15 -3 -8 4 -15 12 -15 20 0 8 -4 14 -10 14 -5 0 -10 -5 -10
-12 0 -6 -3 -8 -6 -5 -4 4 -1 13 5 21 8 10 9 16 1 21 -6 4 -9 14 -8 22 2 10
-5 17 -19 18 -18 1 -20 -2 -13 -16 5 -9 17 -20 27 -23 15 -6 15 -9 3 -16 -16
-10 -43 7 -35 20 7 11 -43 50 -62 50 -8 0 -11 5 -8 10 6 10 -17 14 -65 12 -22
-1 -22 0 -5 7 16 7 14 9 -14 14 -21 4 -30 11 -25 18 4 8 3 9 -4 5 -6 -4 -9
-13 -6 -21 4 -10 0 -12 -16 -8 -20 5 -20 6 -3 25 10 11 13 19 8 18 -22 -5 -27
1 -15 15 7 8 8 15 3 15 -6 0 -15 -10 -22 -22 -10 -21 -11 -21 -5 7 4 17 8 40
9 51 2 12 8 31 14 43 7 12 11 27 10 34 -3 25 1 38 11 32 6 -3 10 -1 10 5 0 6
12 23 26 38 31 33 52 68 34 57 -9 -6 -9 -2 -1 14 7 11 19 21 27 21 8 0 12 5 9
10 -3 6 -1 10 6 10 10 0 10 3 1 12 -7 7 -12 17 -12 22 0 6 5 4 10 -4 7 -11 10
-11 10 -2 0 7 5 10 10 7 6 -3 10 -1 10 5 0 7 7 10 15 6 8 -3 14 -2 14 2 -4 23
3 42 14 39 6 -1 12 7 12 18 0 28 13 45 29 39 18 -7 30 12 15 22 -8 4 -9 3 -5
-4 4 -7 2 -12 -3 -12 -6 0 -11 5 -11 11 0 8 -6 7 -17 -2 -16 -13 -17 -12 -5 3
8 10 22 15 37 12 18 -3 30 3 46 25 12 17 26 28 30 25 4 -2 10 0 14 5 3 6 -3 8
-15 6 -28 -5 -33 9 -9 31 11 10 20 14 19 9 -5 -25 2 -24 25 2 20 23 24 25 25
10 0 -10 5 -15 10 -12 7 4 7 12 0 25 -7 13 -7 21 2 26 7 4 8 3 4 -4 -4 -7 -4
-12 1 -13 4 0 16 -2 27 -4 32 -6 49 5 34 23 -11 13 -10 15 4 9 13 -4 15 -2 11
10 -5 12 -2 15 10 10 15 -6 16 -4 6 14 -7 14 -7 19 0 15 5 -4 19 -2 31 4 11 5
29 15 40 20 12 6 20 6 20 1 0 -5 -6 -12 -12 -14 -8 -3 -6 -6 5 -6 9 -1 17 6
17 14 0 8 7 15 15 15 8 0 15 5 15 11 0 8 5 8 15 -1 12 -10 15 -10 15 4 0 9 -6
16 -12 16 -9 0 -8 3 2 10 9 5 19 5 27 -2 8 -6 17 -8 20 -4 4 4 1 11 -7 17 -11
7 -6 8 14 3 21 -5 27 -4 22 5 -8 12 10 11 67 -3 12 -3 7 1 -10 9 -41 19 -43
26 -4 15 18 -5 31 -4 33 1 2 5 21 12 43 16 22 3 43 11 47 17 5 8 13 7 27 -1
14 -9 22 -9 27 -2 3 6 15 8 26 6 11 -3 27 -3 36 1 14 5 12 8 -8 14 -25 7 1 5
70 -6 14 -2 30 -1 35 4 24 18 134 -1 230 -40 11 -5 35 -14 53 -22 17 -7 32
-17 32 -22 0 -4 11 -6 25 -4 15 3 25 1 24 -6 -3 -21 1 -36 9 -34 15 3 42 -15
42 -28 0 -8 7 -14 15 -14 9 0 12 -6 9 -17 -5 -15 -4 -15 5 -3 7 11 5 20 -7 35
-14 16 -14 17 -1 7 9 -6 18 -9 22 -6 3 3 4 -6 3 -20 -3 -21 -1 -24 10 -15 17
14 18 5 2 -24 -10 -20 -10 -21 5 -8 20 16 23 1 5 -18 -7 -7 -8 -12 -3 -11 19
4 54 -12 60 -27 4 -13 3 -14 -10 -3 -9 8 -15 8 -15 2 0 -6 4 -13 10 -17 5 -3
7 -13 4 -23 -4 -10 -2 -13 3 -7 4 6 16 16 25 23 15 12 17 11 13 -9 -5 -26 12
-52 28 -42 6 4 8 -2 5 -15 -4 -12 -2 -20 3 -16 5 3 9 -2 9 -10 0 -9 5 -16 11
-16 5 0 7 5 3 12 -4 7 -3 8 4 4 7 -4 12 -16 12 -27 0 -10 6 -19 13 -19 7 0 22
-7 33 -15 16 -13 16 -14 1 -9 -13 5 -16 2 -11 -10 4 -10 13 -15 20 -12 8 3 14
-1 14 -8 0 -8 7 -17 16 -20 22 -8 36 -8 30 2 -2 4 4 8 15 8 19 0 19 -1 -2 -17
-23 -17 -13 -34 14 -23 8 3 18 1 22 -5 3 -6 11 -11 16 -11 6 0 7 5 3 12 -4 7
-3 8 4 4 6 -4 9 -13 6 -20 -5 -13 18 -17 158 -32 20 -2 48 -8 63 -14 36 -14
42 -13 20 4 -17 12 -14 13 27 2 52 -13 74 -26 31 -18 -15 2 -25 1 -21 -3 4 -4
23 -7 42 -7 20 0 39 -4 42 -9 3 -5 17 -6 31 -3 16 4 24 3 20 -3 -4 -6 0 -19 8
-29 10 -13 14 -14 12 -4 -2 8 -2 12 0 7 3 -4 10 -4 16 0 9 5 9 3 1 -8 -6 -8
-12 -47 -13 -88 -1 -44 -10 -98 -22 -130 -10 -30 -15 -51 -10 -45 5 5 16 29
25 54 18 53 21 35 4 -24 -7 -22 -18 -45 -25 -49 -7 -5 -11 -12 -9 -16 7 -11
-30 -82 -37 -74 -4 3 -13 0 -21 -6 -16 -14 -10 -45 7 -34 6 3 7 1 3 -6 -6 -9
-11 -9 -22 0 -11 9 -14 8 -14 -8 0 -10 -4 -23 -10 -29 -5 -5 -11 -19 -13 -31
-2 -13 -7 -26 -12 -30 -4 -5 -5 -3 -1 4 4 7 -2 18 -13 25 -16 10 -18 15 -8 28
11 13 10 13 -5 1 -10 -7 -15 -18 -12 -23 4 -6 -6 -21 -22 -35 -22 -19 -24 -23
-9 -19 19 6 19 5 3 -7 -10 -8 -14 -18 -10 -23 4 -5 -4 0 -17 11 -14 11 -21 14
-17 8 4 -7 2 -13 -4 -13 -6 0 -8 -4 -5 -10 3 -5 0 -10 -8 -10 -8 0 -25 -8 -38
-19 -27 -21 -27 -21 -70 -21 -18 0 -28 -4 -24 -10 4 -7 -3 -9 -22 -5 -21 5
-24 4 -13 -4 20 -14 4 -14 -22 0 -14 8 -27 8 -42 1 -37 -19 -139 -44 -156 -39
-10 3 -24 1 -31 -4 -12 -7 -11 -9 1 -9 8 -1 3 -8 -13 -16 -15 -8 -33 -12 -39
-8 -7 4 -24 9 -38 10 -21 3 -22 1 -7 -7 9 -6 23 -7 30 -3 8 5 7 2 -2 -9 -11
-14 -16 -15 -29 -5 -13 11 -15 10 -9 -4 4 -12 2 -15 -9 -11 -9 3 -27 -6 -44
-22 -16 -15 -32 -25 -37 -22 -4 3 -21 -6 -38 -19 -27 -21 -27 -23 -6 -17 23 6
23 5 -5 -25 -20 -21 -31 -27 -37 -19 -5 8 -7 5 -5 -8 1 -11 -1 -26 -6 -34 -7
-10 -5 -12 5 -7 8 4 5 1 -5 -8 -10 -8 -23 -13 -27 -10 -5 3 -5 -6 1 -20 5 -15
6 -26 1 -26 -5 0 -7 -9 -4 -20 3 -11 1 -20 -5 -20 -6 0 -8 -9 -5 -20 3 -11 1
-20 -4 -20 -5 0 -8 -12 -7 -27 0 -21 6 -28 21 -29 16 -1 19 3 15 19 -4 16 -1
19 11 14 12 -4 14 -2 10 10 -5 11 -3 14 6 8 10 -6 11 -3 2 13 -9 17 -8 20 7
18 19 -3 41 21 42 44 0 16 55 70 72 70 5 0 6 4 3 10 -3 6 1 10 9 10 8 0 21 6
28 12 24 24 85 46 116 44 17 -1 29 2 26 6 -3 4 10 8 29 8 18 0 37 3 41 7 4 4
24 8 44 9 20 1 48 4 62 8 18 5 20 4 6 -2 -11 -5 -15 -11 -10 -15 6 -3 23 0 38
8 18 10 24 10 19 2 -5 -9 -3 -9 8 -1 20 16 78 23 83 10 3 -7 5 -6 5 2 1 6 13
12 27 12 14 0 23 3 21 8 -3 4 7 8 22 9 36 3 123 47 114 58 -5 4 -2 5 5 1 8 -5
21 -1 31 8 10 9 29 19 41 21 13 3 28 10 34 16 7 7 2 7 -14 -1 -25 -13 -25 -13
-6 8 10 12 23 20 29 19 5 -1 21 14 35 33 19 28 23 30 17 10 -7 -23 -7 -23 9
-7 10 9 14 22 10 28 -4 8 -3 9 4 5 6 -4 20 -2 31 4 16 8 22 7 31 -9 13 -25 13
-51 0 -51 -5 0 -9 10 -7 23 2 23 -23 32 -31 9 -2 -7 2 -10 11 -6 11 4 13 -1 9
-22 -4 -20 -2 -25 8 -19 10 6 12 0 8 -23 -2 -17 -1 -29 4 -26 8 5 12 -11 9
-30 -1 -5 2 -12 6 -15 16 -12 43 -83 36 -94 -4 -7 1 -6 11 2 9 8 16 10 15 5
-4 -25 3 -44 16 -44 8 0 16 -4 16 -10 1 -5 2 -14 3 -19 1 -11 15 -26 24 -26
15 0 71 -49 66 -56 -3 -5 3 -6 12 -2 12 4 15 3 10 -5 -4 -7 -2 -10 7 -6 8 3
20 -2 27 -10 7 -9 16 -13 22 -10 5 3 14 1 21 -4 16 -12 146 -36 154 -28 3 3
12 1 20 -5 9 -9 13 -8 13 0 0 12 67 15 94 5 9 -3 13 -11 9 -18 -4 -6 1 -5 11
3 10 9 20 11 24 5 4 -5 14 -10 22 -12 8 -1 25 -14 38 -28 24 -28 30 -103 12
-179 -10 -45 0 -64 22 -41 9 8 19 12 23 8 4 -4 5 -2 4 3 -2 6 7 30 20 54 29
56 38 139 20 194 -12 39 -82 120 -94 109 -3 -3 -5 1 -5 8 0 7 -3 11 -6 7 -3
-3 -24 1 -46 9 -22 8 -73 14 -114 14 -41 0 -76 5 -79 11 -4 6 -14 8 -22 5 -8
-3 -29 2 -46 11 -18 9 -36 16 -40 15 -4 -1 -10 5 -13 13 -3 8 -11 12 -18 8 -6
-4 -4 2 4 12 10 13 11 16 2 11 -8 -5 -19 -1 -28 10 -9 11 -12 13 -8 5 5 -9 3
-12 -4 -7 -7 4 -12 14 -12 22 0 8 -7 14 -16 12 -11 -2 -18 5 -21 22 -2 13 -8
29 -13 34 -14 14 -12 29 2 20 7 -4 8 -3 4 5 -4 6 -12 9 -17 6 -5 -4 -9 0 -10
7 0 7 -2 22 -4 33 -8 42 -8 61 3 87 12 29 32 46 32 27 0 -7 8 -2 19 9 10 12
21 19 25 15 3 -3 6 -1 6 5 0 7 7 12 15 12 8 0 19 9 25 20 6 11 14 19 18 16 4
-3 9 7 10 21 1 14 7 32 13 40 7 7 14 65 17 131 2 65 10 132 18 151 8 18 11 38
7 45 -4 7 -1 6 9 -1 15 -13 28 -8 28 11 0 6 -5 4 -10 -4 -5 -8 -10 -10 -10 -3
0 19 61 65 79 58 35 -14 46 -16 28 -5 -23 15 -13 30 22 30 15 0 32 5 37 10 6
6 25 12 43 15 18 2 36 7 40 11 3 4 -2 4 -11 1 -10 -4 -18 -2 -18 3 0 6 6 10
13 10 18 0 59 58 51 72 -4 6 -3 8 3 5 7 -4 9 10 7 41 -3 38 -2 42 6 22 6 -17
8 20 5 115 -3 77 -2 134 1 128 3 -7 10 -13 15 -13 6 0 7 5 4 10 -4 6 5 10 19
10 14 0 26 -4 26 -8 0 -12 61 -32 74 -25 6 4 5 0 -2 -9 -10 -13 -10 -18 -1
-24 8 -4 9 -3 5 4 -10 17 7 15 30 -3 19 -15 19 -15 -1 -8 -11 3 -17 3 -13 -1
3 -4 12 -9 20 -10 32 -6 58 -18 53 -26 -3 -5 -1 -11 5 -15 5 -3 10 0 10 7 1 8
6 6 15 -6 12 -16 12 -22 2 -28 -8 -5 -7 -8 6 -8 9 0 17 -5 17 -12 0 -9 3 -9
11 -1 8 8 16 6 30 -8 11 -11 24 -17 29 -14 6 3 7 -1 4 -10 -4 -9 -2 -15 3 -13
10 3 163 -149 163 -163 0 -5 5 -9 11 -9 5 0 8 -4 5 -9 -3 -5 1 -11 9 -15 8 -3
15 -13 15 -21 0 -9 4 -14 9 -11 5 3 12 -1 15 -10 4 -10 2 -13 -7 -8 -6 3 0 -5
15 -18 15 -13 28 -31 30 -38 2 -8 10 -22 18 -31 22 -26 102 -179 93 -179 -5 0
-2 -4 4 -8 20 -12 81 -197 98 -292 21 -118 19 -256 -5 -365 -11 -49 -25 -92
-30 -93 -6 -2 -8 -8 -5 -12 12 -19 -86 -185 -134 -229 -14 -13 -20 -20 -13
-17 23 13 12 0 -45 -54 -31 -29 -53 -47 -49 -39 5 8 -4 -1 -19 -19 -15 -18
-31 -29 -37 -26 -6 4 -8 2 -5 -3 4 -6 -1 -17 -10 -24 -13 -11 -15 -11 -9 -1 7
11 4 11 -12 1 -12 -7 -19 -15 -17 -18 7 -7 -175 -122 -195 -124 -10 -1 -17 -4
-15 -7 5 -8 -137 -74 -260 -121 -148 -56 -273 -90 -337 -92 -36 -1 -59 -7 -63
-15 -3 -8 0 -11 8 -7 6 4 4 0 -5 -8 -10 -8 -15 -16 -13 -19 3 -3 -1 -11 -9
-17 -12 -10 -15 -9 -13 11 0 13 5 26 10 29 5 3 2 9 -5 12 -14 5 -16 1 -20 -40
-2 -24 -20 -35 -31 -20 -6 8 -7 5 -3 -7 4 -10 2 -24 -4 -31 -7 -8 -5 -12 5
-12 8 0 11 5 8 10 -4 6 -1 7 8 2 8 -5 11 -5 7 0 -10 11 12 36 24 29 5 -3 -3
-19 -18 -35 -44 -45 -24 -54 82 -35 295 54 614 178 836 326 48 32 85 53 82 47
-3 -7 1 -4 9 5 8 10 18 14 22 10 5 -4 5 -2 1 5 -7 13 32 45 46 37 5 -3 7 -2 6
3 -3 11 113 129 124 125 5 -1 7 2 4 7 -7 11 18 33 28 24 4 -4 5 -1 2 7 -3 8 9
31 26 50 17 19 27 28 23 20 -5 -9 -4 -12 1 -7 5 5 9 12 9 15 0 4 17 36 37 72
95 168 131 301 130 485 -1 140 -1 143 -27 254 -9 40 -18 78 -19 85 -1 6 -4 16
-7 21 -4 6 -12 28 -18 50 -19 62 -71 178 -116 255 -10 19 -20 41 -22 48 -1 8
-14 27 -29 43 -15 16 -24 29 -18 29 5 0 1 5 -9 11 -9 6 -15 14 -12 19 3 5 -4
14 -15 20 -11 6 -18 15 -15 20 3 5 -3 15 -13 22 -19 13 -22 18 -22 40 0 6 -3
8 -7 5 -4 -4 -12 6 -19 23 -7 17 -21 33 -31 37 -36 12 -64 45 -51 60 9 11 8
13 -3 11 -8 -2 -13 2 -12 9 2 7 -6 10 -17 8 -11 -2 -19 1 -17 8 1 7 -4 11 -12
9 -11 -2 -12 0 -3 11 15 18 -3 36 -31 32 -15 -3 -16 -1 -6 11 10 12 9 13 -4 9
-8 -4 -23 0 -34 9 -10 8 -33 26 -50 41 -18 15 -32 32 -30 38 1 7 -5 11 -13 10
-8 -1 -26 7 -40 18 -14 11 -20 18 -14 15 6 -3 11 1 11 9 0 12 -4 12 -20 -2
-13 -11 -17 -12 -12 -4 6 11 4 13 -9 8 -10 -4 -15 -3 -11 3 3 6 -1 10 -9 10
-9 0 -16 5 -16 11 0 6 -7 8 -17 5 -10 -4 -14 -4 -10 0 4 4 -5 14 -20 21 -16 7
-35 17 -43 23 -17 12 -68 32 -90 35 -8 2 -41 9 -72 16 -62 14 -88 5 -88 -32 0
-11 -4 -19 -9 -19 -5 0 -10 -28 -11 -62 -1 -35 -2 -110 -3 -168 -1 -58 -6
-111 -11 -119 -6 -10 -5 -12 2 -7 21 13 13 -33 -8 -54 -12 -12 -18 -25 -15
-30 3 -5 0 -12 -6 -16 -8 -5 -9 -3 -4 6 9 15 9 15 -80 -30 -39 -19 -73 -39
-76 -44 -4 -5 -12 -5 -19 -1 -8 5 -11 4 -7 -2 4 -6 -2 -18 -13 -28 -11 -10
-20 -25 -20 -34 0 -14 -2 -14 -10 -1 -7 11 -10 11 -10 2 0 -7 -4 -11 -9 -8 -5
4 -7 -4 -3 -16 5 -21 4 -22 -13 -8 -15 12 -17 12 -10 1 10 -17 16 -66 7 -57
-10 10 -42 -87 -36 -108 3 -10 2 -16 -2 -13 -5 3 -9 -23 -9 -58 0 -35 3 -61 8
-58 4 2 7 0 7 -6 0 -5 -5 -13 -11 -16 -6 -4 -8 -13 -5 -21 3 -7 -1 -20 -9 -28
-8 -7 -11 -17 -7 -21 4 -5 2 -5 -5 -2 -6 4 -9 16 -6 27 6 21 -11 28 -22 10 -4
-6 -14 -9 -23 -8 -9 2 -17 -3 -18 -9 -1 -7 -3 -16 -4 -20 -1 -5 -2 -12 -1 -16
1 -5 -3 -6 -9 -2 -8 5 -8 11 -1 19 7 9 7 16 -2 25 -9 10 -9 12 2 9 19 -4 53
115 46 162 -3 19 -6 69 -7 110 -1 46 -6 83 -15 97 -8 12 -12 27 -8 33 3 5 2
10 -3 10 -6 0 -13 11 -16 25 -4 14 -11 25 -17 25 -6 0 -7 5 -4 10 3 6 1 10 -4
10 -6 0 -11 5 -11 11 0 6 7 8 16 5 8 -3 12 -2 9 4 -4 6 -17 8 -29 6 -14 -2
-23 1 -23 7 0 7 -1 21 -2 32 l-2 20 -9 -20 c-9 -20 -9 -19 -15 2 -7 20 -27 33
-63 39 -8 1 -17 6 -20 10 -4 4 2 4 13 0 15 -5 17 -4 8 4 -8 9 -17 9 -29 2 -13
-7 -24 -6 -40 5 -13 8 -28 12 -34 8 -5 -3 -10 -2 -10 4 0 5 -27 13 -60 17 -33
3 -57 10 -55 14 3 5 -4 6 -15 3 -11 -3 -38 4 -61 16 -39 21 -86 21 -73 0 3 -5
-11 -2 -30 8 -20 9 -34 18 -32 21 2 2 14 -2 26 -8 17 -9 25 -9 34 1 8 9 8 10
-1 5 -7 -4 -24 1 -38 10 -14 9 -34 14 -45 11 -17 -4 -18 -2 -9 16 10 18 9 20
-2 10 -18 -18 -34 -16 -19 2 10 12 10 15 -4 15 -15 0 -21 -12 -17 -33 1 -5 -3
-6 -9 -2 -10 6 1 39 17 47 5 3 2 3 -4 2 -15 -4 -45 35 -37 48 13 20 -9 29 -29
11 -12 -9 -17 -11 -10 -4 9 11 7 21 -14 47 -14 19 -29 31 -34 28 -5 -3 -6 3
-2 12 4 12 3 15 -5 10 -8 -5 -14 3 -18 23 -4 17 -10 31 -15 31 -5 0 -9 7 -9
15 0 18 -11 19 -29 3 -11 -11 -12 -10 -6 0 4 8 0 21 -10 32 -9 10 -14 23 -10
29 3 6 0 9 -8 5 -8 -3 -19 2 -26 10 -7 8 -18 13 -26 10 -7 -3 -19 3 -26 13
-14 19 -77 50 -92 45 -5 -1 -6 2 -2 8 4 7 12 7 25 0 10 -5 22 -10 27 -10 4 1
-5 8 -20 16 -24 13 -31 13 -45 2 -13 -11 -14 -11 -8 1 7 10 3 12 -14 6 -15 -5
-20 -4 -16 3 8 13 -58 33 -82 25 -15 -4 -15 -3 -2 6 12 9 11 11 -10 12 -14 0
-45 3 -70 6 -25 2 -60 5 -77 6 -18 1 -33 5 -33 10 0 4 -26 6 -57 6 -47 -1 -52
-3 -28 -9z m42 -176 c-3 -3 -12 -4 -19 -1 -8 3 -5 6 6 6 11 1 17 -2 13 -5z
m297 -83 c-2 -3 -12 3 -22 13 -16 17 -16 18 5 5 12 -7 20 -15 17 -18z m31 -11
c3 -5 1 -10 -4 -10 -6 0 -11 5 -11 10 0 6 2 10 4 10 3 0 8 -4 11 -10z m-840
-40 c-3 -5 -12 -10 -18 -10 -7 0 -6 4 3 10 19 12 23 12 15 0z m920 0 c3 -5 1
-10 -4 -10 -6 0 -11 5 -11 10 0 6 2 10 4 10 3 0 8 -4 11 -10z m-1076 -127 c2
-1 -5 -1 -16 0 -11 0 -20 7 -20 14 0 10 4 10 16 1 9 -7 18 -13 20 -15z m1401
7 c0 -5 -5 -10 -11 -10 -5 0 -7 5 -4 10 3 6 8 10 11 10 2 0 4 -4 4 -10z m-210
-6 c0 -8 -19 -13 -24 -6 -3 5 1 9 9 9 8 0 15 -2 15 -3z m220 -20 c0 -8 -19
-13 -24 -6 -3 5 1 9 9 9 8 0 15 -2 15 -3z m1804 -52 c3 -5 -1 -9 -9 -9 -8 0
-12 4 -9 9 3 4 7 8 9 8 2 0 6 -4 9 -8z m-1589 -52 c3 -5 2 -10 -4 -10 -5 0
-13 5 -16 10 -3 6 -2 10 4 10 5 0 13 -4 16 -10z m1102 -52 c-3 -8 -6 -5 -6 6
-1 11 2 17 5 13 3 -3 4 -12 1 -19z m-732 -66 c-3 -3 -11 0 -18 7 -9 10 -8 11
6 5 10 -3 15 -9 12 -12z m-2390 -162 c-3 -5 -12 -10 -18 -10 -7 0 -6 4 3 10
19 12 23 12 15 0z m-109 -265 c-1 -8 -5 -17 -8 -21 -5 -4 -4 16 1 34 3 9 9 -1
7 -13z m2628 -77 c-9 -14 -23 2 -17 18 4 12 8 13 14 3 4 -7 5 -17 3 -21z m41
-77 c3 -6 -5 -15 -17 -21 -21 -10 -21 -10 -6 3 10 8 15 17 11 20 -3 4 -4 7 0
7 3 0 8 -4 12 -9z m-311 -9 c3 -5 -1 -9 -9 -9 -8 0 -12 4 -9 9 3 4 7 8 9 8 2
0 6 -4 9 -8z m-2289 -32 c-3 -5 -12 -10 -18 -10 -7 0 -6 4 3 10 19 12 23 12
15 0z m2456 -102 c-10 -11 -11 -9 -5 7 7 18 6 19 -12 5 -18 -14 -18 -14 -5 3
10 12 17 15 25 7 7 -7 6 -14 -3 -22z m-261 11 c0 -5 -4 -7 -10 -4 -5 3 -10 1
-10 -6 0 -7 -3 -10 -6 -6 -8 7 4 27 17 27 5 0 9 -5 9 -11z m221 -42 c-10 -9
-11 -8 -5 6 3 10 9 15 12 12 3 -3 0 -11 -7 -18z m189 -353 c0 -8 -19 -13 -24
-6 -3 5 1 9 9 9 8 0 15 -2 15 -3z m-1185 -102 c-3 -3 -11 0 -18 7 -9 10 -8 11
6 5 10 -3 15 -9 12 -12z M4530 3020 c-21 -7 -21 -8 -5 -9 11 0 27 4 35 9 18
11 5 11 -30 0z M4940 2831 c0 -5 5 -13 10 -16 6 -3 10 -2 10 4 0 5 -4 13 -10
16 -5 3 -10 2 -10 -4z M3530 2765 c-16 -19 0 -25 24 -9 13 8 26 12 29 9 4 -3
5 -2 2 2 -9 12 -45 10 -55 -2z M3788 2653 c7 -3 16 -2 19 1 4 3 -2 6 -13 5
-11 0 -14 -3 -6 -6z M3364 2629 c0 -19 20 -19 38 -1 7 7 10 12 8 13 -35 6 -46
3 -46 -12z M5368 2463 c6 -2 18 -2 25 0 6 3 1 5 -13 5 -14 0 -19 -2 -12 -5z
M3231 2444 c0 -11 3 -14 6 -6 3 7 2 16 -1 19 -3 4 -6 -2 -5 -13z M7006 2409
c21 -23 23 -23 20 -2 -2 9 -11 17 -20 19 -17 2 -17 2 0 -17z M3145 2320 c3 -5
8 -10 11 -10 2 0 4 5 4 10 0 6 -5 10 -11 10 -5 0 -7 -4 -4 -10z M6170 2310
c-8 -5 -10 -10 -5 -10 6 0 17 5 25 10 8 5 11 10 5 10 -5 0 -17 -5 -25 -10z
M3420 2295 c0 -5 5 -17 10 -25 5 -8 10 -10 10 -5 0 6 -5 17 -10 25 -5 8 -10
11 -10 5z M3396 2263 c-6 -14 -5 -15 5 -6 7 7 10 15 7 18 -3 3 -9 -2 -12 -12z
M5825 2241 c-3 -5 -2 -12 3 -15 5 -3 9 1 9 9 0 17 -3 19 -12 6z M6006 2242
c-3 -5 1 -9 9 -9 8 0 12 4 9 9 -3 4 -7 8 -9 8 -2 0 -6 -4 -9 -8z M5608 2108
c-7 -17 15 -19 29 -3 4 4 3 5 -4 2 -6 -4 -13 -2 -15 5 -3 8 -6 6 -10 -4z
M6186 2104 c-11 -8 -16 -14 -10 -14 13 0 39 18 34 24 -3 2 -14 -2 -24 -10z
M3266 2065 c-9 -26 -7 -32 5 -12 6 10 9 21 6 23 -2 3 -7 -2 -11 -11z M5933
2063 c-15 -5 -17 -23 -4 -23 5 0 11 7 15 15 3 8 4 15 3 14 -1 0 -8 -3 -14 -6z
M3308 1913 c6 -2 18 -2 25 0 6 3 1 5 -13 5 -14 0 -19 -2 -12 -5z M4091 1874
c0 -11 3 -14 6 -6 3 7 2 16 -1 19 -3 4 -6 -2 -5 -13z M5481 1676 c-7 -8 -8
-17 -3 -20 6 -3 12 3 15 14 6 24 4 25 -12 6z M3140 1486 c0 -8 -13 -25 -28
-38 -15 -12 -27 -25 -27 -28 0 -3 -9 -18 -21 -35 -36 -52 -63 -117 -84 -205
-23 -99 -25 -170 -6 -295 7 -49 11 -96 8 -104 -3 -9 -1 -12 6 -7 11 7 14 3 16
-26 1 -7 3 -15 7 -18 3 -3 15 -21 27 -41 17 -28 19 -38 9 -49 -10 -12 -9 -12
6 0 15 11 20 11 30 0 9 -10 9 -11 -1 -5 -11 6 -12 3 -3 -12 6 -11 7 -24 3 -28
-4 -5 -1 -5 6 -1 7 4 9 12 6 18 -4 7 -2 8 5 4 6 -4 9 -12 6 -17 -4 -5 -1 -9 5
-9 6 0 9 -4 6 -9 -4 -5 -1 -11 4 -13 6 -2 12 -13 13 -25 0 -12 4 -21 7 -20 11
3 50 -29 50 -41 0 -7 3 -11 8 -9 4 2 17 -7 29 -20 12 -13 20 -23 17 -23 -3 0
7 -11 22 -25 14 -13 30 -23 34 -20 12 8 32 -23 24 -37 -4 -7 -3 -10 1 -5 5 4
17 -1 28 -10 15 -13 19 -14 13 -3 -5 9 -2 8 7 -2 8 -10 18 -14 23 -10 4 4 3 0
-4 -9 -10 -13 -8 -19 11 -35 l22 -19 -19 23 c-11 12 -14 22 -8 22 6 0 14 -5
17 -10 4 -6 11 -7 17 -4 7 4 8 2 4 -4 -4 -6 4 -16 16 -23 13 -7 29 -19 36 -28
10 -14 11 -13 5 4 -6 18 -5 18 10 6 9 -7 15 -16 13 -20 -3 -4 5 -8 16 -8 12
-1 24 -7 28 -13 4 -7 10 -11 14 -11 19 3 27 0 22 -7 -8 -13 40 -36 55 -27 7 5
10 4 5 -3 -3 -6 3 -13 14 -17 11 -4 18 -11 15 -16 -3 -5 2 -6 11 -2 11 4 15 3
11 -4 -5 -7 0 -9 13 -6 12 3 29 -2 42 -13 12 -11 18 -13 14 -7 -5 9 -2 11 8 7
9 -3 13 -10 10 -15 -3 -5 4 -9 15 -9 19 0 26 -10 22 -33 -1 -4 11 0 26 10 16
11 24 13 19 5 -5 -9 -3 -13 5 -11 31 4 50 -1 43 -12 -4 -8 0 -9 15 -4 12 4 21
2 21 -4 0 -8 90 -11 287 -11 157 0 284 2 281 5 -5 6 -97 24 -128 27 -8 0 -20
5 -27 10 -7 5 -17 7 -23 3 -6 -4 -16 -2 -23 3 -7 5 -19 10 -27 10 -23 1 -103
23 -123 34 -11 5 -21 7 -24 4 -3 -3 -12 2 -20 10 -8 8 -19 12 -24 9 -4 -3 -22
1 -39 10 -17 9 -45 18 -62 20 -17 2 -35 10 -39 17 -5 7 -9 9 -9 4 0 -5 -7 -3
-15 4 -8 6 -19 9 -25 5 -5 -3 -10 -1 -10 5 0 7 -7 10 -17 6 -15 -5 -15 -4 1 9
23 18 14 20 -16 4 -15 -8 -19 -8 -14 0 7 11 -12 16 -43 12 -8 -2 -10 2 -5 10
5 9 2 10 -9 6 -8 -3 -21 1 -27 8 -7 8 -16 12 -21 9 -5 -3 -6 2 -3 10 3 9 -3
19 -18 26 -23 11 -23 11 -3 -6 l20 -17 -20 8 c-11 4 -28 8 -37 9 -13 0 -14 3
-6 14 9 10 6 12 -15 8 -15 -3 -27 0 -27 5 0 6 -4 7 -10 4 -5 -3 -10 1 -10 11
0 11 -6 15 -18 12 -15 -4 -18 0 -16 18 1 13 -2 22 -7 18 -5 -3 -7 -9 -5 -13 3
-4 -1 -8 -9 -8 -8 0 -11 5 -8 10 4 6 -1 8 -11 4 -10 -4 -15 -3 -11 3 3 6 1 10
-5 10 -6 0 -8 5 -4 13 6 9 4 9 -8 -1 -10 -8 -19 -9 -22 -3 -4 5 -2 12 4 16 19
12 0 26 -20 15 -13 -7 -21 -7 -26 2 -4 6 -3 8 4 4 6 -3 13 -2 17 4 3 5 -3 10
-15 10 -12 0 -18 4 -15 11 4 6 14 8 22 5 8 -3 12 -2 9 3 -3 5 -15 11 -26 14
-11 3 -18 1 -15 -3 11 -18 -18 -21 -33 -4 -16 17 -16 17 3 3 19 -13 19 -13 6
4 -8 10 -20 16 -27 13 -12 -5 -29 20 -25 37 1 5 -3 6 -8 2 -6 -3 -17 5 -26 18
-8 13 -26 30 -40 37 -14 7 -25 20 -25 27 0 8 4 11 10 8 6 -3 7 1 4 9 -3 9 -10
16 -15 16 -5 0 -9 14 -9 30 0 42 -15 38 -16 -5 0 -18 3 -32 7 -29 4 2 10 0 13
-5 4 -5 2 -12 -3 -15 -12 -8 -34 21 -26 34 3 5 -1 10 -9 10 -9 0 -16 8 -15 18
0 10 3 12 6 5 2 -7 9 -13 15 -13 6 0 6 6 -2 15 -7 8 -18 15 -26 15 -7 0 -16 5
-20 12 -4 7 -3 8 4 4 16 -10 15 0 -4 32 -15 26 -15 26 1 7 17 -20 17 -20 10 2
-5 20 -3 22 26 18 17 -2 28 -1 24 3 -3 4 -14 7 -23 7 -9 0 -16 6 -14 14 2 8
-3 11 -12 8 -21 -8 -31 10 -16 29 13 15 45 0 35 -16 -3 -4 7 -15 20 -24 14 -9
23 -21 20 -26 -3 -5 -1 -11 5 -15 5 -3 10 -12 10 -18 0 -7 -7 -3 -15 7 -8 11
-18 16 -22 13 -13 -14 25 -41 40 -29 18 15 124 -89 112 -110 -5 -7 -4 -10 0
-5 5 4 17 0 27 -10 10 -9 18 -12 18 -8 0 4 9 0 20 -10 14 -13 17 -21 9 -31 -7
-9 -6 -14 2 -20 7 -4 9 -3 6 3 -14 23 20 20 42 -3 13 -14 26 -22 29 -20 3 3
20 -8 39 -24 18 -17 40 -30 48 -30 7 0 17 -5 21 -12 5 -7 3 -8 -6 -3 -9 6 -11
4 -6 -4 5 -7 14 -10 21 -7 7 2 21 -2 32 -10 17 -14 16 -14 -7 -4 -22 10 -23
10 -8 -3 10 -8 16 -16 14 -18 -2 -2 9 -5 25 -6 39 -3 93 -34 76 -45 -9 -6 -9
-8 0 -8 6 0 15 5 19 11 4 8 9 7 15 -2 4 -8 14 -14 21 -14 22 -1 118 -39 118
-47 0 -5 9 -8 21 -8 13 0 18 -4 13 -13 -6 -9 -4 -9 8 1 10 8 19 9 22 3 3 -5
24 -12 46 -16 22 -4 42 -11 46 -16 3 -5 18 -9 34 -9 16 0 32 -5 35 -10 4 -6
11 -8 16 -5 5 4 9 1 9 -4 0 -6 -5 -11 -12 -11 -6 0 -8 -3 -5 -6 4 -4 13 -1 21
5 8 7 20 10 27 6 8 -6 7 -10 -2 -17 -14 -10 -2 -7 38 9 12 5 14 3 8 -7 -6 -10
-4 -12 10 -7 16 7 152 -19 233 -44 17 -6 42 -7 53 -4 16 5 19 4 14 -5 -6 -10
0 -12 28 -7 21 3 37 2 37 -3 0 -5 14 -7 32 -3 18 3 29 2 26 -3 -4 -5 19 -9 50
-10 32 0 73 -2 92 -4 19 -1 62 -2 94 -1 l59 1 -27 25 c-17 15 -24 30 -20 38 5
7 0 6 -11 -3 -10 -8 -16 -10 -12 -4 7 12 -28 45 -52 49 -9 1 -16 11 -15 22 0
14 -6 20 -20 19 -14 -1 -20 4 -18 16 1 9 -3 20 -9 24 -8 4 -9 3 -5 -4 4 -7 3
-12 -3 -12 -5 0 -11 10 -13 22 -2 13 -9 22 -16 20 -8 -1 -11 2 -8 7 3 5 -6 30
-21 57 -37 67 -49 204 -18 204 14 0 16 3 7 8 -8 5 -10 16 -6 27 5 13 4 16 -5
10 -10 -6 -11 -3 -2 14 7 11 15 21 19 21 4 0 13 14 20 30 8 17 17 28 21 26 4
-3 15 4 25 15 13 15 21 18 30 10 9 -8 13 -7 13 4 0 8 -4 12 -8 9 -4 -2 -11 1
-15 8 -4 7 -4 10 0 7 7 -7 47 0 95 16 17 5 22 4 16 -5 -6 -9 -3 -9 13 -1 25
13 45 14 38 2 -3 -5 3 -11 14 -14 11 -3 20 0 20 6 0 7 4 6 9 -3 6 -8 7 -18 4
-23 -3 -5 3 -4 14 1 15 8 24 5 43 -15 14 -14 25 -29 25 -34 0 -4 4 -11 9 -16
5 -5 6 -3 2 4 -5 9 -2 11 9 7 12 -5 13 -9 4 -20 -7 -8 -9 -17 -5 -21 3 -3 6
-1 6 7 0 21 27 -7 34 -36 4 -14 11 -22 16 -19 6 3 7 -1 4 -9 -3 -9 -1 -16 6
-16 6 0 8 -5 5 -10 -5 -8 59 -9 116 -1 13 2 40 71 33 83 -4 6 -3 9 2 6 13 -8
31 15 28 35 -1 9 1 15 6 12 4 -3 15 7 24 20 10 14 22 23 28 19 6 -4 8 -3 5 3
-8 13 16 35 34 31 7 -2 13 2 14 8 0 19 30 41 52 39 12 -1 20 2 18 5 -7 12 107
30 145 24 19 -3 44 -7 55 -9 11 -2 24 -4 29 -4 5 -1 6 -4 3 -8 -9 -9 31 -36
42 -28 10 6 24 -11 27 -33 2 -8 9 -21 17 -30 56 -66 50 -268 -10 -334 -9 -10
-12 -18 -8 -18 4 0 -4 -11 -19 -25 -15 -14 -24 -29 -21 -35 3 -5 -6 -17 -20
-26 -14 -9 -25 -21 -25 -26 0 -13 -56 -68 -69 -68 -5 0 -16 -9 -24 -20 -8 -11
-16 -17 -19 -14 -3 3 -21 -10 -40 -28 -29 -30 -51 -44 -76 -49 -4 -1 -32 -17
-62 -36 -30 -20 -60 -36 -67 -37 -7 -1 -16 -5 -19 -9 -14 -13 251 -8 265 5 11
11 13 10 7 -2 -4 -8 5 -2 19 15 15 17 24 23 20 15 -4 -8 9 2 29 23 20 20 36
34 36 30 0 -4 19 13 42 37 22 25 46 45 52 45 6 0 11 5 11 10 1 17 37 65 45 60
4 -3 11 2 14 11 4 10 2 13 -7 9 -6 -4 -5 -1 4 7 9 7 17 18 18 23 1 6 10 9 19
8 10 -1 11 0 5 3 -7 3 -13 10 -13 15 0 6 5 7 12 3 7 -4 8 -3 4 4 -4 6 4 32 18
57 14 25 24 45 21 45 -2 0 2 18 10 41 27 75 23 231 -6 264 -5 5 -9 18 -9 28 0
11 -12 34 -27 52 -16 17 -34 40 -41 51 -7 10 -10 12 -6 4 4 -8 -5 -4 -19 9
-15 14 -25 27 -22 29 6 7 -58 41 -67 35 -5 -2 -8 0 -8 5 0 30 -185 41 -268 16
-31 -10 -63 -16 -70 -15 -7 1 -15 -5 -18 -13 -3 -9 -10 -13 -15 -10 -5 3 -6
10 -3 16 4 7 2 8 -5 4 -6 -4 -9 -12 -6 -17 4 -5 1 -9 -5 -9 -6 0 -8 -5 -4 -12
4 -6 3 -8 -4 -4 -6 3 -13 2 -17 -4 -3 -5 -22 -17 -41 -26 -26 -12 -32 -19 -22
-25 10 -7 11 -9 0 -9 -7 0 -28 -16 -46 -36 l-34 -37 5 29 c5 28 5 28 -11 9 -8
-11 -16 -15 -16 -7 0 6 -5 12 -10 12 -7 0 -6 -8 1 -22 10 -18 4 -15 -27 11
-21 19 -38 39 -36 44 1 5 -2 6 -7 2 -6 -3 -21 1 -34 10 -13 8 -27 12 -32 8 -4
-5 -5 -2 -1 5 4 6 2 12 -4 12 -6 0 -9 4 -6 9 4 5 -3 7 -14 4 -11 -3 -20 -1
-20 4 0 6 -27 9 -62 7 -34 -1 -56 1 -49 5 7 5 -14 8 -47 7 -33 0 -55 -4 -48
-8 6 -5 0 -8 -15 -8 -34 0 -92 -24 -82 -34 4 -4 0 -4 -8 -1 -10 4 -30 -9 -55
-35 -21 -22 -44 -38 -51 -36 -8 3 -10 -1 -6 -11 5 -12 3 -14 -8 -8 -8 4 -11 4
-6 0 4 -5 -5 -22 -20 -38 -16 -17 -22 -27 -16 -23 9 5 11 2 7 -8 -3 -8 -12
-17 -20 -20 -8 -3 -14 -11 -14 -18 0 -9 3 -9 11 2 8 12 9 11 5 -5 -18 -63 -22
-119 -14 -176 5 -35 7 -72 4 -82 -2 -9 0 -15 5 -11 5 3 9 -2 9 -10 0 -9 5 -16
11 -16 6 0 9 -7 5 -15 -3 -8 6 -36 19 -62 25 -46 25 -46 3 -27 -13 10 -26 24
-30 29 -4 6 -8 2 -8 -7 0 -10 -7 -18 -15 -18 -8 0 -15 4 -15 8 0 5 -22 8 -49
8 -27 -1 -47 3 -43 8 3 5 -5 6 -18 3 -14 -3 -38 2 -61 14 -21 10 -58 19 -81
20 -35 1 -38 2 -18 8 21 6 16 9 -28 15 -29 3 -60 10 -69 13 -11 4 -14 3 -9 -5
4 -8 2 -10 -8 -6 -8 3 -17 12 -20 20 -3 8 -11 14 -18 14 -9 0 -8 -3 2 -10 25
-16 -6 -12 -44 7 -19 9 -33 20 -31 24 3 4 -5 5 -17 1 -16 -4 -19 -2 -13 8 6
10 3 12 -15 7 -15 -4 -47 7 -99 34 -42 21 -82 39 -88 39 -7 0 -13 5 -13 10 0
6 -6 10 -13 10 -34 0 -146 83 -139 103 1 5 -3 5 -9 1 -9 -5 -3 -15 17 -31 16
-12 25 -23 20 -23 -14 0 -65 47 -58 54 3 4 -1 4 -10 1 -9 -4 -19 -1 -23 4 -3
6 -10 9 -15 6 -5 -3 -12 0 -16 6 -5 8 -3 9 6 4 9 -6 11 -4 6 4 -5 7 -15 10
-25 6 -12 -5 -13 -3 -4 6 6 6 9 18 6 26 -5 12 -7 12 -15 1 -7 -10 -11 -9 -23
6 -8 10 -19 15 -26 10 -7 -4 -10 -3 -6 4 9 13 -2 42 -15 42 -5 0 -6 -6 -2 -12
6 -10 5 -10 -8 -1 -8 7 -18 9 -22 5 -4 -4 -7 -2 -6 3 5 24 -1 36 -17 33 -12
-2 -17 3 -15 15 3 15 -9 22 -31 18 -5 -1 -6 3 -3 8 4 5 1 13 -4 16 -8 5 -5 14
7 28 17 20 17 21 0 8 -16 -12 -21 -10 -47 19 -16 18 -27 37 -24 42 3 5 2 7 -3
6 -4 -2 -9 1 -10 6 -1 5 -5 12 -10 15 -16 12 -34 52 -27 63 4 7 3 8 -4 4 -7
-4 -12 -1 -12 6 0 8 -8 30 -19 51 -10 20 -15 34 -10 31 5 -3 6 2 3 10 -3 9
-11 16 -16 16 -6 0 -7 7 -4 16 4 9 2 22 -3 28 -5 6 -12 31 -16 55 -6 35 -5 42
6 36 8 -5 6 1 -5 13 -11 13 -16 30 -13 43 3 12 -1 32 -10 45 -8 13 -13 35 -11
49 3 14 2 25 -2 25 -5 0 -6 9 -3 20 3 11 3 20 -1 20 -3 0 -6 -6 -6 -14z m15
-565 c3 -5 2 -12 -3 -15 -5 -3 -9 1 -9 9 0 17 3 19 12 6z m18 -48 c-5 -12 -3
-14 7 -8 9 5 11 4 6 -3 -12 -20 -26 -13 -24 12 1 14 6 22 10 20 4 -3 4 -12 1
-21z m-23 -19 c0 -8 -19 -13 -24 -6 -3 5 1 9 9 9 8 0 15 -2 15 -3z m10 -29 c0
-7 -30 -13 -34 -7 -3 4 4 9 15 9 10 1 19 0 19 -2z m5 -295 c10 -11 16 -20 13
-20 -3 0 -13 9 -23 20 -10 11 -16 20 -13 20 3 0 13 -9 23 -20z M3550 1460 c-9
-6 -10 -10 -3 -10 6 0 15 5 18 10 8 12 4 12 -15 0z M5490 1408 c-17 -15 -19
-19 -7 -15 10 4 22 7 26 7 4 0 8 7 8 15 0 8 -1 15 -1 15 -1 -1 -12 -10 -26
-22z M3046 1411 c-4 -5 -2 -12 3 -15 5 -4 12 -2 15 3 4 5 2 12 -3 15 -5 4 -12
2 -15 -3z M3030 1365 c-7 -9 -11 -17 -9 -20 3 -2 10 5 17 15 14 24 10 26 -8 5z
M5050 1310 c8 -5 24 -10 34 -10 26 0 18 6 -19 14 -22 5 -26 4 -15 -4z M7484
1158 c0 -157 -15 -222 -79 -347 -39 -77 -136 -214 -146 -208 -2 1 -3 0 -1 -2
3 -6 -50 -61 -59 -61 -3 0 -26 -18 -50 -39 -23 -22 -47 -37 -52 -34 -6 3 -7 1
-4 -4 7 -11 -20 -28 -38 -24 -5 2 -7 -1 -3 -5 13 -12 -117 -93 -273 -171 -168
-83 -406 -167 -619 -217 l-145 -35 253 0 253 -1 117 46 c120 48 268 122 359
180 28 18 54 30 57 27 3 -4 6 -2 6 3 0 5 15 18 33 29 17 10 55 38 83 62 28 23
54 41 57 38 4 -3 5 -3 3 0 -2 3 23 32 56 63 85 80 230 290 243 352 1 3 9 41
19 84 35 151 -4 394 -64 396 -3 0 -5 -60 -6 -132z M5945 910 c3 -5 8 -10 11
-10 2 0 4 5 4 10 0 6 -5 10 -11 10 -5 0 -7 -4 -4 -10z M4723 875 c0 -8 4 -12
9 -9 5 3 6 10 3 15 -9 13 -12 11 -12 -6z M5141 887 c2 -1 13 -9 24 -17 19 -14
19 -14 6 3 -7 9 -18 17 -24 17 -6 0 -8 -1 -6 -3z M3401 866 c-15 -8 -20 -16
-12 -20 6 -4 11 -2 11 5 0 8 4 8 15 -1 13 -11 14 -10 9 5 -6 14 -4 16 6 10 9
-5 11 -4 6 3 -9 14 -5 14 -35 -2z M3185 829 c-9 -14 -2 -20 14 -10 8 6 9 11 3
15 -6 3 -14 1 -17 -5z M3465 770 c3 -5 8 -10 11 -10 2 0 4 5 4 10 0 6 -5 10
-11 10 -5 0 -7 -4 -4 -10z M3207 744 c-10 -11 5 -34 22 -34 14 1 14 2 -1 14
-10 7 -15 16 -11 19 3 4 4 7 1 7 -2 0 -7 -3 -11 -6z M3284 723 c4 -7 2 -13 -4
-13 -6 0 -8 -5 -4 -11 4 -8 9 -7 15 2 8 12 13 6 11 -13 -1 -3 5 -12 13 -18 8
-7 15 -9 15 -5 0 5 9 0 20 -10 40 -36 19 -8 -26 35 -26 25 -44 39 -40 33z
M3365 591 c-6 -11 13 -26 22 -17 4 3 1 6 -6 6 -7 0 -9 5 -6 10 3 6 4 10 1 10
-3 0 -7 -4 -11 -9z M3434 570 c0 -13 4 -16 10 -10 7 7 7 13 0 20 -6 6 -10 3
-10 -10z M3418 513 c5 -21 7 -23 10 -9 2 10 0 22 -6 28 -6 6 -7 0 -4 -19z
M3534 498 c-4 -7 -4 -10 1 -6 4 4 15 2 24 -5 14 -11 14 -10 2 6 -16 20 -18 21
-27 5z M5850 406 c0 -2 8 -10 18 -17 15 -13 16 -12 3 4 -13 16 -21 21 -21 13z
M3570 390 c-9 -6 -10 -10 -3 -10 6 0 15 5 18 10 8 12 4 12 -15 0z M3303 365
c0 -8 4 -12 9 -9 5 3 6 10 3 15 -9 13 -12 11 -12 -6z"/>
</g>
</svg>
